<svg xmlns="http://www.w3.org/2000/svg" viewBox="0 0 202.91 50.75"><defs><style>.cls-1{fill:#4f585a;}.cls-2{fill:#6ec248;}.cls-3{fill:#1c6c58;}</style></defs><title>Asset 1</title><g id="Layer_2" data-name="Layer 2"><g id="Layer_1-2" data-name="Layer 1"><path class="cls-1" d="M81.05,18.83V1.26H92.32v3H84.64v4h7.68v3H84.64v4.49h7.68v3H81.05"/><path class="cls-1" d="M102.16,12.2l5,6.63h-4.57l-2.71-4-2.81,4h-4.5l5.23-6.73L93,5.62h4.55l2.61,3.82,2.66-3.82h4.47l-5.1,6.58"/><path class="cls-1" d="M117.91,17.5a6.79,6.79,0,0,1-4.75,1.63,6.52,6.52,0,0,1-6.7-6.9,6.68,6.68,0,0,1,6.8-6.91A7.11,7.11,0,0,1,117.91,7l-1.84,2.49a3.49,3.49,0,0,0-6,2.79,3.55,3.55,0,0,0,3.36,3.84,3.45,3.45,0,0,0,2.54-1l1.91,2.43"/><path class="cls-1" d="M127.47,10.67a2.54,2.54,0,0,0-2.64-2.56,3,3,0,0,0-3,2.56Zm-5.82,2.44A3.32,3.32,0,0,0,125,16.27a3.73,3.73,0,0,0,3.44-2l2.33,1.58a6.57,6.57,0,0,1-6,3.24A6.4,6.4,0,0,1,118,12.38a6.77,6.77,0,0,1,6.7-7.06,6.07,6.07,0,0,1,6.38,6.1,9.68,9.68,0,0,1-.17,1.69h-9.29"/><path class="cls-1" d="M132.44,0H136V18.83h-3.57Z"/><path class="cls-1" d="M138.21,0h3.57V18.83h-3.57Z"/><path class="cls-1" d="M152.53,10.67a2.54,2.54,0,0,0-2.64-2.56,3,3,0,0,0-3,2.56Zm-5.83,2.44A3.33,3.33,0,0,0,150,16.27a3.74,3.74,0,0,0,3.44-2l2.33,1.58a6.58,6.58,0,0,1-6,3.24,6.4,6.4,0,0,1-6.68-6.75,6.78,6.78,0,0,1,6.71-7.06,6.07,6.07,0,0,1,6.38,6.1,9.7,9.7,0,0,1-.18,1.69H146.7"/><path class="cls-1" d="M160.58,5.62l.28,1.81A5,5,0,0,1,165,5.32a4.45,4.45,0,0,1,3.52,1.74c1,1.33,1.18,3,1.18,4.92v6.85h-3.57V12.15a6.73,6.73,0,0,0-.4-2.83,1.81,1.81,0,0,0-1.76-.93,3.44,3.44,0,0,0-2.86,1.68v8.76H157.5V5.62h3.08"/><path class="cls-1" d="M182.3,17.5a6.78,6.78,0,0,1-4.75,1.63,6.52,6.52,0,0,1-6.7-6.9,6.68,6.68,0,0,1,6.8-6.91A7.11,7.11,0,0,1,182.3,7l-1.83,2.49a3.5,3.5,0,0,0-6,2.79,3.55,3.55,0,0,0,3.37,3.84,3.41,3.41,0,0,0,2.53-1l1.91,2.43"/><path class="cls-1" d="M191.86,10.67a2.54,2.54,0,0,0-2.63-2.56,3,3,0,0,0-3,2.56ZM186,13.11a3.32,3.32,0,0,0,3.31,3.16,3.72,3.72,0,0,0,3.44-2l2.34,1.58a6.58,6.58,0,0,1-6,3.24,6.4,6.4,0,0,1-6.68-6.75,6.78,6.78,0,0,1,6.71-7.06,6.07,6.07,0,0,1,6.37,6.1,9.68,9.68,0,0,1-.17,1.69H186"/><path class="cls-1" d="M80.82,25.85h3.57V39.06H80.82Zm0-4.87h3.57v3H80.82Z"/><path class="cls-1" d="M89.69,25.85,90,27.66a5,5,0,0,1,4.1-2.11,4.45,4.45,0,0,1,3.51,1.73c1,1.33,1.18,3,1.18,4.93v6.85H95.19V32.38a6.8,6.8,0,0,0-.41-2.84A1.8,1.8,0,0,0,93,28.61a3.47,3.47,0,0,0-2.87,1.69v8.76H86.6V25.85h3.09"/><path class="cls-1" d="M109.7,36.05h.82a7,7,0,0,0,2.92-.38,1.79,1.79,0,0,0,1-1.76c0-1.45-1-2.36-2.74-2.36h-2Zm0-7.41h1c2.06,0,3.26-.68,3.26-2.06a1.92,1.92,0,0,0-.75-1.63,5.28,5.28,0,0,0-2.81-.45h-.7Zm1-7.16a8.94,8.94,0,0,1,4.77,1.13,4.44,4.44,0,0,1,2,3.84,3.59,3.59,0,0,1-2.2,3.39,4.18,4.18,0,0,1,2.93,4,4.83,4.83,0,0,1-3.14,4.52,12.59,12.59,0,0,1-4.62.7h-4.41V21.48h4.62"/><path class="cls-1" d="M123.48,27.61a3.69,3.69,0,0,1,3.09-2.06,5,5,0,0,1,1.7.3L127.42,29a2.66,2.66,0,0,0-1.26-.3,2.91,2.91,0,0,0-2.48,1.45v8.94h-3.57V25.85h3.09l.28,1.76"/><path class="cls-1" d="M136.79,30.9a2.55,2.55,0,0,0-2.64-2.56,3,3,0,0,0-3,2.56ZM131,33.33a3.33,3.33,0,0,0,3.31,3.17,3.72,3.72,0,0,0,3.44-2l2.34,1.58a6.58,6.58,0,0,1-6,3.24,6.4,6.4,0,0,1-6.68-6.75,6.78,6.78,0,0,1,6.71-7.06,6.08,6.08,0,0,1,6.38,6.1,9.49,9.49,0,0,1-.18,1.68H131"/><path class="cls-1" d="M150.29,30.9a2.54,2.54,0,0,0-2.64-2.56,3,3,0,0,0-3,2.56Zm-5.82,2.43a3.33,3.33,0,0,0,3.31,3.17,3.72,3.72,0,0,0,3.44-2l2.34,1.58a6.58,6.58,0,0,1-6,3.24,6.4,6.4,0,0,1-6.68-6.75,6.77,6.77,0,0,1,6.7-7.06,6.07,6.07,0,0,1,6.38,6.1,9.48,9.48,0,0,1-.17,1.68h-9.29"/><path class="cls-1" d="M164.4,30.05a3.83,3.83,0,0,0-3.06-1.44c-2.29,0-3.34,2-3.34,3.9a3.52,3.52,0,0,0,3.29,3.79,3.45,3.45,0,0,0,3.11-1.74Zm.48,9-.3-1.63a4.81,4.81,0,0,1-4.07,1.93c-3.49,0-6.15-3.11-6.15-7s2.61-6.86,6.2-6.86a5.25,5.25,0,0,1,3.84,1.58v-6.9H168V39.06h-3.08"/><path class="cls-1" d="M170.17,25.85h3.57V39.06h-3.57Zm0-4.87h3.57v3h-3.57Z"/><path class="cls-1" d="M179,25.85l.27,1.81a5,5,0,0,1,4.09-2.11,4.47,4.47,0,0,1,3.52,1.73c1,1.33,1.18,3,1.18,4.93v6.85h-3.57V32.38a6.8,6.8,0,0,0-.4-2.84,1.81,1.81,0,0,0-1.75-.93,3.47,3.47,0,0,0-2.87,1.69v8.76H176V25.85H179"/><path class="cls-1" d="M199.35,30.05a3.85,3.85,0,0,0-3.07-1.44c-2.28,0-3.34,1.91-3.34,3.75A3.39,3.39,0,0,0,196.23,36a3.49,3.49,0,0,0,3.12-1.74Zm3.56,8.31a6.75,6.75,0,0,1-.83,3.51c-1.15,2-3.41,2.89-5.82,2.89a11.17,11.17,0,0,1-6.1-1.81l1.3-2.94a8.42,8.42,0,0,0,4.67,1.69,2.91,2.91,0,0,0,3.22-3.12v-1.2a5,5,0,0,1-3.9,1.68c-3.49,0-6.15-3-6.15-6.8s2.61-6.71,6.2-6.71a4.88,4.88,0,0,1,4,1.86l.3-1.56h3.09V38.36"/><path class="cls-1" d="M82.94,43.78h-1.2v2.76h1c1.08,0,1.89-.35,1.89-1.36S83.93,43.78,82.94,43.78ZM83,47.5H81.74v3.12H80.67v-7.8H83c1.26,0,2.75.63,2.75,2.33S84.27,47.5,83,47.5"/><path class="cls-1" d="M87.31,50.62v-7.8h1.07v6.84h3.39v1H87.31"/><path class="cls-1" d="M94.74,48h2.61l-1.3-3.55h0Zm3.57,2.62L97.7,49H94.38l-.6,1.66H92.61l3-7.8h.93l3,7.8H98.31"/><path class="cls-1" d="M102.81,43.78v6.84h-1.07V43.78h-2v-1h5v1h-2"/><path class="cls-1" d="M107.4,47.29v3.33h-1.07v-7.8h4v1H107.4v2.55h2.89v1H107.4"/><path class="cls-1" d="M115.75,43.65a3.08,3.08,0,1,0,2.87,3.07A2.91,2.91,0,0,0,115.75,43.65Zm0,7.1a4,4,0,1,1,4-4,4,4,0,0,1-4,4"/><path class="cls-1" d="M124,43.78h-1.19v2.58h1c1,0,1.8-.37,1.8-1.27S125,43.78,124,43.78Zm2,6.84-2.34-3.3h-.8v3.3h-1.07v-7.8h2.31a2.39,2.39,0,0,1,2.67,2.24,2.21,2.21,0,0,1-1.91,2.2l2.48,3.36H126"/><path class="cls-1" d="M133.31,50.62h-.74L130,44v6.58h-1.07v-7.8h1.69L133,48.91l2.4-6.09h1.7v7.8H136V44l-2.67,6.58"/><path class="cls-2" d="M7.07,4.69a7.07,7.07,0,1,0,7.08,7.07A7.07,7.07,0,0,0,7.07,4.69"/><path class="cls-2" d="M27.21,24.82a7.08,7.08,0,1,0,7.07,7.07,7.08,7.08,0,0,0-7.07-7.07"/><path class="cls-2" d="M47.34,4.69a7.07,7.07,0,1,0,7.08,7.07,7.07,7.07,0,0,0-7.08-7.07"/><path class="cls-3" d="M67.48,4.69a7.06,7.06,0,0,0-7.07,7.07,6.44,6.44,0,0,0,.47,2.41,2.22,2.22,0,0,1-.43,2.33l-8.36,8.37a2.24,2.24,0,0,1-2.33.42,6.53,6.53,0,0,0-2.42-.47,6.44,6.44,0,0,0-2.41.47,2.24,2.24,0,0,1-2.33-.42L34.23,16.5a2.24,2.24,0,0,1-.42-2.33,6.44,6.44,0,0,0,.47-2.41,7.08,7.08,0,0,0-14.15,0,6.33,6.33,0,0,0,.48,2.41,2.22,2.22,0,0,1-.43,2.33l-8.36,8.37a2.24,2.24,0,0,1-2.33.42,6.53,6.53,0,0,0-2.42-.47,7.08,7.08,0,1,0,7.08,7.07,6.39,6.39,0,0,0-.48-2.41,2.24,2.24,0,0,1,.43-2.33l8.36-8.37a2.25,2.25,0,0,1,2.34-.42,6.41,6.41,0,0,0,4.82,0,2.24,2.24,0,0,1,2.33.42l8.37,8.37a2.24,2.24,0,0,1,.42,2.33,6.5,6.5,0,0,0-.47,2.41,7.08,7.08,0,1,0,14.15,0,6.39,6.39,0,0,0-.48-2.41,2.26,2.26,0,0,1,.43-2.33l8.36-8.37a2.25,2.25,0,0,1,2.34-.42,6.44,6.44,0,0,0,2.41.47,7.07,7.07,0,0,0,0-14.14"/></g></g></svg>